<svg width="93" height="99" viewBox="0 0 93 99" fill="none" xmlns="http://www.w3.org/2000/svg">
<path d="M36.881 41.5303C33.8519 41.5303 31.4604 44.0053 31.4604 47.0248C31.4604 50.0443 33.905 52.5193 36.881 52.5193C39.9102 52.5193 42.3016 50.0443 42.3016 47.0248C42.3547 44.0053 39.9102 41.5303 36.881 41.5303ZM56.2782 41.5303C53.249 41.5303 50.8576 44.0053 50.8576 47.0248C50.8576 50.0443 53.3022 52.5193 56.2782 52.5193C59.3073 52.5193 61.6987 50.0443 61.6987 47.0248C61.6987 44.0053 59.3073 41.5303 56.2782 41.5303Z" fill="#828483"/>
<path d="M82.1057 0H10.8943C4.88914 0 0 4.554 0 10.197V77.121C0 82.764 4.88914 87.318 10.8943 87.318H71.1583L68.3417 78.1605L75.144 84.051L81.5743 89.595L93 99V10.197C93 4.554 88.1109 0 82.1057 0ZM61.5926 64.647C61.5926 64.647 59.6794 62.5185 58.0851 60.6375C65.0469 58.806 67.704 54.747 67.704 54.747C65.5251 56.0835 63.4526 57.024 61.5926 57.6675C58.9354 58.707 56.3846 59.4 53.8869 59.796C48.7851 60.687 44.1086 60.4395 40.1229 59.7465C37.0937 59.202 34.4897 58.41 32.3109 57.618C31.0886 57.1725 29.76 56.628 28.4314 55.935C28.272 55.836 28.1126 55.7865 27.9531 55.6875C27.8469 55.638 27.7937 55.5885 27.7406 55.539C26.784 55.044 26.2526 54.6975 26.2526 54.6975C26.2526 54.6975 28.8034 58.6575 35.5526 60.5385C33.9583 62.4195 31.992 64.647 31.992 64.647C20.2474 64.3005 15.7834 57.123 15.7834 57.123C15.7834 41.184 23.436 28.2645 23.436 28.2645C31.0886 22.9185 38.3691 23.067 38.3691 23.067L38.9006 23.661C29.3349 26.235 24.924 30.1455 24.924 30.1455C24.924 30.1455 26.0931 29.5515 28.0594 28.71C33.7457 26.3835 38.2629 25.74 40.1229 25.5915C40.4417 25.542 40.7074 25.4925 41.0263 25.4925C44.268 25.0965 47.9349 24.9975 51.7611 25.3935C56.8097 25.938 62.2303 27.324 67.7571 30.1455C67.7571 30.1455 63.5589 26.433 54.5246 23.859L55.2686 23.067C55.2686 23.067 62.5491 22.9185 70.2017 28.2645C70.2017 28.2645 77.8543 41.184 77.8543 57.123C77.8543 57.123 73.3371 64.3005 61.5926 64.647Z" fill="#828483"/>
</svg>
