<svg width="93" height="93" viewBox="0 0 93 93" fill="none" xmlns="http://www.w3.org/2000/svg">
<path d="M46.5408 22.8065C45.723 22.8065 44.9141 22.8482 44.1171 22.9298C43.3202 23.0115 42.5342 23.1324 41.7617 23.2912C40.9891 23.45 40.2302 23.6466 39.4866 23.8788L37.3039 24.6802L35.2258 25.6836L33.2648 26.8768L31.4325 28.2474L29.7417 29.7832L28.2044 31.4725L26.8324 33.3028L25.6376 35.262L24.6336 37.3377C24.3318 38.0476 24.0634 38.7755 23.831 39.5186C23.5986 40.2616 23.402 41.0201 23.2428 41.7918C23.0838 42.5635 22.9628 43.3485 22.8808 44.1449C22.799 44.9413 22.7578 45.7493 22.7578 46.5662C22.7578 47.3831 22.7995 48.1911 22.8808 48.9875C22.9618 49.7776 23.0825 50.5631 23.2428 51.3409C23.402 52.1156 23.5986 52.8711 23.831 53.6142C24.0634 54.3572 24.3315 55.0848 24.6336 55.7951L25.6376 57.8708L26.8324 59.8297L28.2044 61.6603L29.7417 63.3496L31.4325 64.8856L33.2648 66.2561L35.2258 67.4489L37.3039 68.4526L39.4866 69.254L41.7617 69.8417C42.5402 70.0019 43.3264 70.1227 44.1171 70.2034C44.9224 70.2854 45.7314 70.3268 46.5408 70.3261C47.3586 70.3261 48.1675 70.2848 48.9642 70.2034C49.755 70.1227 50.5412 70.0019 51.3197 69.8417L53.5951 69.254L55.7777 68.4526L57.8556 67.4489L59.8168 66.2561L61.6491 64.8856L63.3402 63.3496L64.8778 61.6603L66.2496 59.8297L67.4444 57.8708L68.4486 55.7951L69.2508 53.6142C69.4833 52.8711 69.6802 52.1126 69.8391 51.3409L70.2008 48.9873C70.2828 48.1909 70.3241 47.3829 70.3241 46.5659C70.3241 45.749 70.2828 44.941 70.2008 44.1446C70.1201 43.3546 69.9993 42.5693 69.8391 41.7915C69.6802 41.0169 69.4833 40.2616 69.2508 39.5183L68.4486 37.3374L67.4444 35.2616L66.2496 33.3024L64.8778 31.4722L63.3402 29.7829L61.6491 28.247L59.8168 26.8766L57.8556 25.6833L55.7777 24.6799L53.5951 23.8784L51.3197 23.2909L48.9642 22.9295C48.1591 22.8473 47.3502 22.8061 46.5408 22.8062V22.8065ZM46.5408 31.0075C47.0816 31.0075 47.6152 31.0343 48.1407 31.0873L49.69 31.3218L51.1866 31.7031L52.6196 32.2236L53.982 32.8761L55.2632 33.6522L56.4609 34.5451L57.5651 35.5468L58.5676 36.6497L59.4614 37.8463L60.2384 39.1291L60.8909 40.4907C61.0869 40.9567 61.2609 41.4343 61.4123 41.9226C61.5636 42.4109 61.6908 42.91 61.7937 43.4182C61.8964 43.9265 61.9724 44.4438 62.0281 44.969L62.108 46.5677C62.108 47.1079 62.0812 47.6412 62.0281 48.1667C61.9751 48.6923 61.897 49.2095 61.7937 49.7175C61.6903 50.2255 61.5628 50.7245 61.4123 51.2131L60.8909 52.645L60.2384 54.0066L59.4614 55.2892L58.5676 56.486L57.5651 57.5889L56.4609 58.5906L55.2632 59.4835L53.982 60.2596L52.6196 60.9121L51.1866 61.4326L49.69 61.814L48.1407 62.0481C47.609 62.1014 47.0749 62.1281 46.5406 62.128C46.006 62.1281 45.4718 62.1014 44.9401 62.0481L43.3908 61.814C42.8822 61.7109 42.3828 61.5834 41.8939 61.4326L40.4609 60.9121L39.0984 60.2596L37.8173 59.4835L36.6196 58.5906L35.5154 57.5889L34.5129 56.486L33.6191 55.2892L32.842 54.0066L32.1896 52.645L31.6682 51.2131L31.2868 49.7175L31.0524 48.1667C30.999 47.6354 30.9724 47.1018 30.9725 46.5677C30.9724 46.0338 30.999 45.5002 31.0524 44.969C31.1051 44.4438 31.1834 43.9262 31.2868 43.4182C31.3892 42.9138 31.5165 42.4147 31.6685 41.9229L32.1899 40.491L32.8424 39.1295L33.6194 37.8466L34.5131 36.65L35.5157 35.5471L36.6198 34.5454L37.8175 33.6525L39.0987 32.8764L40.4611 32.2239C40.9301 32.027 41.4085 31.8532 41.8945 31.7034L43.3913 31.322C43.8999 31.219 44.4178 31.1403 44.9406 31.0876C45.4725 31.0343 46.0066 31.0077 46.5411 31.0077L46.5408 31.0075Z" fill="#828483"/>
<path d="M71.2884 16.0474C71.0999 16.0474 70.9113 16.0569 70.7233 16.076C70.5354 16.095 70.3487 16.1234 70.1634 16.1612C69.9787 16.1989 69.7953 16.246 69.6151 16.3021C69.4342 16.3583 69.2573 16.4235 69.0829 16.4975C68.9092 16.5717 68.7393 16.6545 68.5734 16.7457C68.4074 16.8368 68.2466 16.9361 68.0909 17.0434C67.9346 17.1507 67.7841 17.2659 67.6401 17.3884C67.4955 17.5108 67.3573 17.6403 67.2255 17.7766C67.0944 17.9129 66.9697 18.0558 66.8522 18.2047C66.7347 18.3536 66.6249 18.5083 66.5228 18.6683C66.4208 18.8281 66.3271 18.993 66.2412 19.1623C66.156 19.3317 66.0785 19.5053 66.01 19.6825C65.9416 19.8596 65.8822 20.0401 65.8311 20.2232C65.7808 20.4064 65.7394 20.5919 65.7078 20.7792C65.6755 20.9664 65.6529 21.1551 65.6393 21.3447C65.6296 21.4789 65.6251 21.6135 65.6251 21.7481C65.6251 21.9382 65.6342 22.1282 65.6535 22.3174C65.6723 22.5065 65.7007 22.6945 65.7381 22.8808C65.7756 23.0671 65.8221 23.2513 65.8776 23.4329C65.9338 23.6145 65.9984 23.7932 66.072 23.9683C66.1457 24.1434 66.2277 24.3147 66.3187 24.4816C66.4092 24.6484 66.508 24.8106 66.6145 24.9675C66.7211 25.1244 66.8354 25.2757 66.9568 25.421C67.0789 25.5664 67.2074 25.7057 67.343 25.8381C67.4787 25.9705 67.6201 26.096 67.7686 26.2141C67.9165 26.3323 68.0702 26.443 68.2291 26.5457C68.388 26.6485 68.552 26.7431 68.72 26.8294C68.8885 26.9156 69.061 26.9934 69.2366 27.0623C69.4129 27.1312 69.5918 27.1912 69.774 27.242C69.9561 27.2927 70.1401 27.3343 70.3261 27.3665C70.5121 27.3989 70.7001 27.4218 70.888 27.4353C71.0217 27.4449 71.1554 27.4496 71.2891 27.4497C71.4777 27.4497 71.6669 27.4403 71.8548 27.4213C72.0421 27.4023 72.2294 27.3739 72.4141 27.3361C72.5995 27.2984 72.7822 27.2513 72.9631 27.1952C73.1433 27.139 73.3209 27.0738 73.4946 26.9998C73.6683 26.9257 73.8388 26.843 74.0042 26.7519C74.1701 26.6607 74.331 26.5613 74.4872 26.4539C74.6429 26.3467 74.7934 26.2316 74.938 26.1093C75.0821 25.9867 75.2203 25.8571 75.352 25.7207C75.4838 25.5844 75.6084 25.4415 75.7253 25.2926C75.8429 25.1437 75.9526 24.989 76.0547 24.829C76.1567 24.6691 76.251 24.5041 76.3363 24.3348C76.4222 24.1653 76.4997 23.9917 76.5681 23.8145C76.6366 23.6374 76.696 23.4569 76.7464 23.2738C76.7967 23.0907 76.8381 22.9051 76.8704 22.7179C76.9027 22.5306 76.9253 22.3418 76.9382 22.1524C76.9479 22.0181 76.953 21.8836 76.953 21.749C76.953 21.5589 76.9434 21.369 76.9246 21.1799C76.9059 20.9908 76.8775 20.8028 76.84 20.6165C76.8026 20.4302 76.7554 20.246 76.6999 20.0644C76.6437 19.8828 76.5791 19.7041 76.5055 19.5291C76.4319 19.3539 76.3498 19.1826 76.2594 19.0157C76.169 18.8489 76.0702 18.6867 75.9636 18.5298C75.8564 18.3728 75.7421 18.2214 75.6207 18.076C75.4986 17.9306 75.3701 17.7914 75.2351 17.6589C75.0995 17.5265 74.9574 17.401 74.8095 17.2829C74.6616 17.1648 74.5079 17.0542 74.349 16.9516C74.1902 16.8488 74.0261 16.7542 73.8576 16.6679C73.689 16.5817 73.5166 16.5039 73.3409 16.435C73.1652 16.3661 72.9857 16.3061 72.8036 16.2553C72.6221 16.2044 72.4374 16.1628 72.2514 16.1305C72.0654 16.0983 71.8781 16.0753 71.6895 16.062C71.5558 16.0524 71.4221 16.0477 71.2884 16.0477V16.0474Z" fill="#828483"/>
<path d="M42.031 0.0838743C39.4443 0.0797029 37.1359 0.0904276 35.0622 0.119625L29.5028 0.268593C27.8558 0.340097 26.4006 0.433344 25.0945 0.554009C24.4414 0.614191 23.8253 0.681524 23.2413 0.755711C22.6856 0.825751 22.1315 0.907307 21.5792 1.00032C21.0533 1.0897 20.5542 1.18623 20.0757 1.2911C19.5973 1.39598 19.1402 1.50919 18.6993 1.63075C18.2682 1.74962 17.8405 1.88036 17.4167 2.02284C17.0014 2.16287 16.5962 2.31124 16.196 2.46974C15.3958 2.78675 14.6152 3.14247 13.8113 3.54111C13.1928 3.84799 12.6214 4.15873 12.0786 4.48765C11.5357 4.81657 11.0215 5.16397 10.518 5.54235C9.99944 5.93391 9.49963 6.3497 9.02029 6.78834C8.51912 7.24475 8.0073 7.74676 7.47546 8.30779C6.80721 9.00885 6.22652 9.66249 5.71109 10.3039C5.45337 10.6245 5.21204 10.9416 4.98472 11.2604C4.75991 11.5745 4.545 11.8957 4.34029 12.2232C4.13769 12.548 3.94582 12.8787 3.76229 13.219C3.5759 13.5651 3.39975 13.9166 3.23405 14.273C2.895 15.0012 2.57859 15.7854 2.26278 16.6607C2.02849 17.3078 1.81869 17.9636 1.63384 18.6265C1.44525 19.304 1.27751 20.0128 1.12794 20.7794C0.978381 21.546 0.847884 22.3704 0.733177 23.282C0.609573 24.2814 0.510827 25.2837 0.437032 26.2879C0.35361 27.392 0.284489 28.607 0.227881 29.9594L0.0938108 34.4558L0.0217099 39.937L0.000854492 46.5621L0.0619313 56.1965L0.25261 63.4959L0.399492 66.3469L0.583021 68.71C0.641853 69.3468 0.715462 69.9816 0.803793 70.6152C0.884231 71.1777 0.970637 71.6699 1.06359 72.0961C1.25221 72.9622 1.47524 73.8205 1.73216 74.6691C1.97816 75.4816 2.25948 76.2824 2.57531 77.0703C2.88577 77.8421 3.22541 78.5861 3.59485 79.3023C3.96429 80.0185 4.36352 80.707 4.79256 81.3683C5.22158 82.029 5.6804 82.6632 6.17021 83.2703C6.65945 83.8774 7.17986 84.458 7.72934 85.0115C8.27959 85.5656 8.86 86.0926 9.47166 86.5938C10.0905 87.1007 10.7339 87.5774 11.3993 88.0211C12.0169 88.4337 12.628 88.8122 13.2435 89.159C13.859 89.5065 14.4799 89.821 15.1181 90.1077C15.7563 90.3939 16.4106 90.6515 17.094 90.8834C17.7775 91.1152 18.4896 91.3213 19.2422 91.504C19.9947 91.6875 20.7914 91.8476 21.6346 91.9878C22.4777 92.1279 23.379 92.248 24.3419 92.3514C25.3049 92.4547 26.3321 92.54 27.436 92.6116C28.5398 92.6833 29.7196 92.7402 30.9873 92.786C32.9457 92.8571 35.9101 92.8984 39.3287 92.9145L50.3955 92.8919L60.8751 92.7453L64.8598 92.633L67.4554 92.4999C68.0128 92.4541 68.5579 92.4005 69.0842 92.3378C69.6106 92.2752 70.1292 92.2035 70.6349 92.1215C71.1399 92.0401 71.634 91.949 72.119 91.8476C72.5988 91.7475 73.0761 91.6358 73.5502 91.5131C74.0197 91.3936 74.4827 91.258 74.9413 91.114C75.3992 90.9706 75.8532 90.8149 76.304 90.6477C76.7574 90.4797 77.2062 90.3008 77.6512 90.1116C78.0988 89.9204 78.5457 89.717 78.9945 89.5007C79.6836 89.1687 80.2384 88.8916 80.7254 88.6217C81.1839 88.3704 81.625 88.0895 82.0467 87.7802C82.4627 87.474 82.876 87.1253 83.3526 86.6861C83.8292 86.2469 84.3698 85.718 85.0382 85.0489C85.6266 84.4612 86.1219 83.9504 86.5495 83.486C86.977 83.0217 87.3374 82.6038 87.6532 82.2008C87.9542 81.8185 88.2345 81.4206 88.4934 81.0086C88.746 80.6062 88.9785 80.1884 89.2148 79.7253C89.5714 79.0285 89.8885 78.3826 90.172 77.7594C90.4477 77.1594 90.6996 76.5478 90.9269 75.9278C91.151 75.3123 91.3454 74.6865 91.5088 74.0523C91.6768 73.4 91.8214 72.7109 91.9467 71.9553C92.0714 71.1997 92.1773 70.3775 92.269 69.4592C92.3607 68.5414 92.4388 67.5262 92.5073 66.3863L92.6894 62.5586L92.8451 57.7984L92.9568 52.4952L92.9994 46.9501L92.9 36.059L92.7669 31.1809L92.5854 26.9925L92.3588 23.7271C92.2767 22.8184 92.1876 22.1028 92.094 21.6189C91.9893 21.0843 91.8731 20.5522 91.7446 20.0229C91.6193 19.5079 91.4817 18.996 91.3319 18.4877C91.1859 17.9924 91.027 17.5009 90.8559 17.0138C90.6867 16.5326 90.5072 16.0615 90.3192 15.6007C90.1319 15.1397 89.9285 14.6896 89.7173 14.2489C89.5055 13.8083 89.284 13.3784 89.0514 12.9582C88.8183 12.5382 88.5761 12.1285 88.3223 11.729C88.0691 11.3295 87.805 10.94 87.5299 10.561C87.2567 10.1833 86.9712 9.8142 86.6748 9.45421C86.3796 9.09629 86.0735 8.74774 85.7564 8.40906C85.4399 8.0709 85.1125 7.74282 84.7754 7.42533C84.4376 7.10771 84.0902 6.80023 83.7317 6.50288C83.3713 6.20457 83.0026 5.91752 82.6241 5.64216C82.2424 5.36398 81.8523 5.09751 81.4539 4.8431C81.0502 4.58507 80.6395 4.33907 80.221 4.1054C79.796 3.86783 79.3633 3.6425 78.9254 3.42969C78.1976 3.07603 77.5246 2.76231 76.8646 2.48404C76.2149 2.20787 75.5529 1.96259 74.8806 1.74903C74.2044 1.53601 73.5004 1.35338 72.7261 1.19577C71.9511 1.03816 71.1063 0.906771 70.1505 0.795042C69.1947 0.683319 68.1271 0.593046 66.9058 0.517967C65.6852 0.442887 64.3118 0.383891 62.7437 0.336221L57.4148 0.217049L50.6705 0.1375L42.0339 0.0844653L42.031 0.0838743ZM46.5163 8.2777L58.971 8.34861L63.6694 8.43916C64.9632 8.47552 65.9506 8.51814 66.5293 8.56729C67.2836 8.63078 68.0012 8.71028 68.6883 8.80567C69.3471 8.89666 70.0032 9.00982 70.6542 9.14499C71.2801 9.27609 71.8768 9.42502 72.4484 9.59307C73.0193 9.76111 73.565 9.94944 74.0881 10.1577C74.6119 10.3659 75.1124 10.595 75.5942 10.8459C76.0721 11.0949 76.5365 11.3688 76.9853 11.6667C77.4323 11.9631 77.863 12.2826 78.2815 12.6267C78.6994 12.9708 79.105 13.3396 79.5009 13.7341C79.9194 14.1503 80.3049 14.5743 80.6601 15.0116C81.014 15.4463 81.3421 15.9019 81.6412 16.3759C81.9441 16.8566 82.2166 17.3557 82.4581 17.87C82.7048 18.3944 82.9264 18.9485 83.1253 19.5375C83.3248 20.1266 83.5018 20.7525 83.6587 21.4214C83.8234 22.1306 83.961 22.8456 84.0721 23.5651C84.1909 24.3278 84.2929 25.1412 84.3795 26.012C84.4654 26.8829 84.5371 27.8116 84.5958 28.8052C84.643 29.6021 84.6843 30.6539 84.7192 31.896L84.8064 36.1311L84.8729 46.5052L84.7973 56.8695L84.7063 61.0925L84.5803 64.1638C84.4938 65.6022 84.4021 66.8112 84.2923 67.8633C84.2374 68.3897 84.1773 68.8766 84.1115 69.3332C84.0495 69.7646 83.9758 70.1941 83.8912 70.6217C83.8137 71.0117 83.724 71.3992 83.6213 71.7842C83.5238 72.1504 83.4133 72.514 83.2913 72.8737C83.1679 73.2347 83.0342 73.5919 82.8895 73.9445C82.7365 74.3178 82.575 74.6865 82.4052 75.0521C82.2541 75.3782 82.0952 75.696 81.9273 76.0047C81.7613 76.3108 81.5843 76.6105 81.3983 76.9043C81.2136 77.1956 81.0199 77.4785 80.8171 77.7523C80.6156 78.0248 80.4044 78.2903 80.1835 78.548C79.9639 78.805 79.7347 79.053 79.4963 79.2933C79.258 79.5329 79.0107 79.7641 78.7543 79.9875C78.4985 80.211 78.2324 80.4261 77.9573 80.6327C77.6828 80.8394 77.398 81.0377 77.1042 81.2275C76.8097 81.4181 76.5068 81.6002 76.1936 81.7746C75.8803 81.9483 75.5574 82.1143 75.2254 82.2725C74.887 82.4333 74.5447 82.5838 74.1973 82.7239C73.8388 82.8686 73.4765 83.0029 73.1103 83.1276C72.3651 83.3814 71.5797 83.6042 70.7524 83.796C69.8909 83.9956 69.0209 84.1583 68.1452 84.2843C67.8081 84.3334 67.0343 84.3798 65.9261 84.4225L61.7027 84.54L49.7287 84.6957L37.1957 84.715L32.2738 84.6627L29.0779 84.5633L26.7212 84.3973C25.9895 84.3359 25.309 84.2675 24.6714 84.1893C24.0339 84.1118 23.4401 84.0253 22.8814 83.9271C22.352 83.8361 21.8259 83.7263 21.3038 83.5997C20.8279 83.4841 20.3567 83.3491 19.8917 83.1954C19.4433 83.0462 19.0145 82.8822 18.5974 82.702C18.1803 82.5218 17.7751 82.3242 17.3738 82.1085C16.9724 81.8927 16.5753 81.659 16.1737 81.4032C15.8707 81.2107 15.5778 81.0157 15.296 80.8097C15.0141 80.603 14.7418 80.397 14.4797 80.1813C14.2174 79.9656 13.9657 79.7434 13.7229 79.5148C13.4816 79.2868 13.2488 79.0504 13.0245 78.8063C12.8011 78.5622 12.5874 78.3116 12.3824 78.052C12.1767 77.7911 11.9806 77.5224 11.7947 77.2473C11.6059 76.9676 11.4273 76.6815 11.2593 76.3896C11.0894 76.0945 10.928 75.7896 10.7745 75.4744C10.6185 75.1541 10.4729 74.8286 10.338 74.4986C10.201 74.1621 10.0711 73.8153 9.94894 73.4575C9.70462 72.7406 9.49014 71.9779 9.30362 71.1648C9.1171 70.3517 8.95797 69.4876 8.82331 68.5666C8.68866 67.6463 8.58022 66.6698 8.49381 65.6326C8.43006 64.8686 8.37943 63.6782 8.34068 62.1766L8.25963 56.8362L8.2894 43.222L8.5239 30.2129L8.70267 25.6295L8.80394 24.1144C8.83914 23.7099 8.8755 23.4102 8.9127 23.2302C9.03547 22.6382 9.15908 22.0873 9.28689 21.5716C9.40631 21.085 9.53915 20.6019 9.68524 20.1227C9.8241 19.6705 9.97038 19.2468 10.1268 18.8455C10.2776 18.4567 10.4457 18.0749 10.6306 17.7011C10.8111 17.3376 11.0051 16.9896 11.2157 16.6509C11.4264 16.3121 11.6537 15.9835 11.9016 15.6567C12.1495 15.3298 12.4164 15.0072 12.7069 14.68C12.9974 14.3529 13.3111 14.0225 13.6514 13.682C14.0479 13.2832 14.4608 12.901 14.889 12.5364C15.2933 12.1924 15.7149 11.8693 16.1522 11.5684C16.5822 11.2704 17.0231 11.0053 17.4823 10.7616C17.9414 10.5179 18.4187 10.2977 18.9207 10.0996C19.4227 9.90145 19.9501 9.72417 20.5086 9.56329C21.0956 9.39867 21.689 9.2582 22.2873 9.14228C22.9166 9.01899 23.5849 8.91139 24.2984 8.81755C25.012 8.72371 25.7711 8.64266 26.5827 8.57233C27.1488 8.5235 28.1242 8.47997 29.4086 8.44335L34.0832 8.351L46.5185 8.27499L46.5163 8.2777Z" fill="#828483"/>
</svg>
