<svg width="113" height="113" viewBox="0 0 113 113" fill="none" xmlns="http://www.w3.org/2000/svg">
<path d="M101.137 22.6996C101.205 23.6889 101.205 24.6781 101.205 25.6765C101.205 56.0976 78.1816 91.182 36.0829 91.182V91.1639C23.6468 91.182 11.4691 87.5989 1 80.8429C2.8083 81.0618 4.62567 81.1709 6.44757 81.1755C16.7535 81.1845 26.7649 77.706 34.8728 71.3013C25.079 71.114 16.4907 64.6912 13.4904 55.3134C16.9212 55.979 20.4563 55.8423 23.8236 54.9168C13.146 52.7468 5.4641 43.31 5.4641 32.3506C5.4641 32.2503 5.4641 32.1546 5.4641 32.0589C8.64565 33.8414 12.2078 34.8306 15.8516 34.94C5.79495 28.1793 2.695 14.7217 8.76802 4.19988C20.3883 18.583 37.5331 27.3268 55.9379 28.2523C54.0933 20.2561 56.6132 11.877 62.5593 6.25589C71.7778 -2.46056 86.2759 -2.0138 94.9409 7.25428C100.067 6.23767 104.98 4.34576 109.476 1.66517C107.767 6.99446 104.191 11.5214 99.4141 14.398C103.951 13.86 108.383 12.6383 112.557 10.7737C109.485 15.4055 105.614 19.44 101.137 22.6996Z" fill="#828483"/>
</svg>
